<svg xmlns="http://www.w3.org/2000/svg" xmlns:v="https://svgstorm.com"
    viewBox="50 50 924 924"
    width="924"
    height="924">
    <defs>
        <linearGradient id="blueTealGradient" x1="0%" y1="0%" x2="100%" y2="100%">
            <stop offset="0%" stop-color="#0a2342" />
            <stop offset="50%" stop-color="#2e8bc0" />
            <stop offset="100%" stop-color="#0ec6b1" />
        </linearGradient>
    </defs>
    <!-- Removed outer frame path for transparency and padding -->
M 473.00 552.00 
C 487.09 567.95 504.21 580.74 519.70 596.30 C 535.18 611.87 550.85 625.73 566.75 641.25 C 582.64 656.78 596.26 670.19 612.75 686.25 C 629.24 702.30 656.57 713.92 679.23 702.23 C 701.89 690.54 712.88 666.68 711.00 642.00 C 709.12 617.32 687.84 605.94 672.25 589.75 C 656.66 573.57 642.22 559.05 626.75 543.25 C 611.28 527.45 595.22 512.69 581.00 497.00
C 605.20 520.61 632.14 536.80 656.25 560.75 C 680.36 584.70 713.23 595.79 728.77 628.23 C 744.31 660.67 729.76 704.58 698.30 724.30 C 666.84 744.03 621.08 735.75 596.25 709.75 C 571.42 683.75 549.66 666.02 525.30 641.70 C 500.94 617.37 478.22 596.40 454.00 573.00
C 430.27 587.39 424.84 611.95 426.00 638.00 C 427.16 664.05 429.89 699.11 413.25 719.25 C 396.60 739.39 369.41 746.30 345.77 733.23 C 322.14 720.16 314.61 696.85 316.00 669.00 C 317.39 641.15 315.30 605.30 316.00 576.00 C 316.70 546.70 315.51 511.48 316.00 482.00 C 316.49 452.52 315.40 417.52 316.00 389.00 C 316.60 360.48 311.15 328.11 326.77 305.77 C 342.39 283.43 368.42 277.08 392.23 287.77 C 416.04 298.47 426.94 320.99 426.00 348.00 C 425.06 375.01 425.87 413.86 427.00 441.00
C 450.89 415.85 473.46 394.78 499.25 370.25 C 525.04 345.71 545.13 324.32 573.23 300.23 C 601.33 276.14 650.93 272.86 684.25 290.75 C 717.56 308.65 739.91 344.65 736.00 383.00 C 732.09 421.35 708.83 449.94 673.92 464.92 C 639.02 479.91 583.94 466.92 551.31 486.31 C 518.67 505.69 502.30 529.58 473.00 552.00 Z" />
    <mask id="cutout-mask">
        <rect x="0" y="0" width="100%" height="100%" fill="white" />
        <path d="M 453.00 534.00 C 470.38 515.14 487.24 503.21 505.75 484.75 C 524.27 466.29 545.64 454.25 571.78 448.78 C 597.91 443.31 638.20 448.37 663.31 438.31 C 688.41 428.24 704.84 407.59 708.00 381.00 C 711.16 354.41 694.17 328.98 671.23 316.77 C 648.29 304.56 612.58 306.23 592.08 322.08 C 571.59 337.93 557.59 353.82 538.75 370.75 C 519.92 387.69 505.42 403.53 486.70 420.70 C 467.97 437.87 453.42 451.94 434.25 470.25 C 415.08 488.56 431.15 522.87 453.00 534.00 Z" fill="black" />
        <path d="M 433.00 554.00 C 415.93 537.36 402.24 524.63 398.33 499.67 C 394.42 474.71 399.29 439.25 397.00 413.00 C 394.71 386.75 402.45 351.13 393.92 327.08 C 385.40 303.03 344.12 310.84 344.33 337.33 C 344.54 363.82 343.64 396.98 344.00 425.00 C 344.36 453.02 343.71 485.57 344.00 514.00 C 344.29 542.43 343.60 573.87 344.00 602.00 C 344.40 630.13 342.76 662.23 345.02 688.98 C 347.29 715.73 390.11 717.14 396.02 693.02 C 401.94 668.91 395.32 631.91 398.67 607.67 C 402.02 583.43 415.07 568.84 433.00 554.00 Z" fill="black" />
    </mask>
    <g fill="url(#blueTealGradient)" fill-opacity="1.0" stroke="none" stroke-opacity="1.0" stroke-width="0.3" mask="url(#cutout-mask)">
        <path d="M 473.00 552.00 C 487.09 567.95 504.21 580.74 519.70 596.30 C 535.18 611.87 550.85 625.73 566.75 641.25 C 582.64 656.78 596.26 670.19 612.75 686.25 C 629.24 702.30 656.57 713.92 679.23 702.23 C 701.89 690.54 712.88 666.68 711.00 642.00 C 709.12 617.32 687.84 605.94 672.25 589.75 C 656.66 573.57 642.22 559.05 626.75 543.25 C 611.28 527.45 595.22 512.69 581.00 497.00 C 605.20 520.61 632.14 536.80 656.25 560.75 C 680.36 584.70 713.23 595.79 728.77 628.23 C 744.31 660.67 729.76 704.58 698.30 724.30 C 666.84 744.03 621.08 735.75 596.25 709.75 C 571.42 683.75 549.66 666.02 525.30 641.70 C 500.94 617.37 478.22 596.40 454.00 573.00 C 430.27 587.39 424.84 611.95 426.00 638.00 C 427.16 664.05 429.89 699.11 413.25 719.25 C 396.60 739.39 369.41 746.30 345.77 733.23 C 322.14 720.16 314.61 696.85 316.00 669.00 C 317.39 641.15 315.30 605.30 316.00 576.00 C 316.70 546.70 315.51 511.48 316.00 482.00 C 316.49 452.52 315.40 417.52 316.00 389.00 C 316.60 360.48 311.15 328.11 326.77 305.77 C 342.39 283.43 368.42 277.08 392.23 287.77 C 416.04 298.47 426.94 320.99 426.00 348.00 C 425.06 375.01 425.87 413.86 427.00 441.00 C 450.89 415.85 473.46 394.78 499.25 370.25 C 525.04 345.71 545.13 324.32 573.23 300.23 C 601.33 276.14 650.93 272.86 684.25 290.75 C 717.56 308.65 739.91 344.65 736.00 383.00 C 732.09 421.35 708.83 449.94 673.92 464.92 C 639.02 479.91 583.94 466.92 551.31 486.31 C 518.67 505.69 502.30 529.58 473.00 552.00 Z" />
    </g>
    <g fill="url(#blueTealGradient)" fill-opacity="1.0" stroke="none" stroke-opacity="1.0"
        stroke-width="0.3">
        <path
            d="
M 473.00 552.00 
C 502.30 529.58 518.67 505.69 551.31 486.31 C 583.94 466.92 639.02 479.91 673.92 464.92 C 708.83 449.94 732.09 421.35 736.00 383.00 C 739.91 344.65 717.56 308.65 684.25 290.75 C 650.93 272.86 601.33 276.14 573.23 300.23 C 545.13 324.32 525.04 345.71 499.25 370.25 C 473.46 394.78 450.89 415.85 427.00 441.00
C 425.87 413.86 425.06 375.01 426.00 348.00 C 426.94 320.99 416.04 298.47 392.23 287.77 C 368.42 277.08 342.39 283.43 326.77 305.77 C 311.15 328.11 316.60 360.48 316.00 389.00 C 315.40 417.52 316.49 452.52 316.00 482.00 C 315.51 511.48 316.70 546.70 316.00 576.00 C 315.30 605.30 317.39 641.15 316.00 669.00 C 314.61 696.85 322.14 720.16 345.77 733.23 C 369.41 746.30 396.60 739.39 413.25 719.25 C 429.89 699.11 427.16 664.05 426.00 638.00 C 424.84 611.95 430.27 587.39 454.00 573.00
C 478.22 596.40 500.94 617.37 525.30 641.70 C 549.66 666.02 571.42 683.75 596.25 709.75 C 621.08 735.75 666.84 744.03 698.30 724.30 C 729.76 704.58 744.31 660.67 728.77 628.23 C 713.23 595.79 680.36 584.70 656.25 560.75 C 632.14 536.80 605.20 520.61 581.00 497.00
C 595.22 512.69 611.28 527.45 626.75 543.25 C 642.22 559.05 656.66 573.57 672.25 589.75 C 687.84 605.94 709.12 617.32 711.00 642.00 C 712.88 666.68 701.89 690.54 679.23 702.23 C 656.57 713.92 629.24 702.30 612.75 686.25 C 596.26 670.19 582.64 656.78 566.75 641.25 C 550.85 625.73 535.18 611.87 519.70 596.30 C 504.21 580.74 487.09 567.95 473.00 552.00
M 453.00 534.00 
C 431.15 522.87 415.08 488.56 434.25 470.25 C 453.42 451.94 467.97 437.87 486.70 420.70 C 505.42 403.53 519.92 387.69 538.75 370.75 C 557.59 353.82 571.59 337.93 592.08 322.08 C 612.58 306.23 648.29 304.56 671.23 316.77 C 694.17 328.98 711.16 354.41 708.00 381.00 C 704.84 407.59 688.41 428.24 663.31 438.31 C 638.20 448.37 597.91 443.31 571.78 448.78 C 545.64 454.25 524.27 466.29 505.75 484.75 C 487.24 503.21 470.38 515.14 453.00 534.00
M 433.00 554.00 
C 415.07 568.84 402.02 583.43 398.67 607.67 C 395.32 631.91 401.94 668.91 396.02 693.02 C 390.11 717.14 347.29 715.73 345.02 688.98 C 342.76 662.23 344.40 630.13 344.00 602.00 C 343.60 573.87 344.29 542.43 344.00 514.00 C 343.71 485.57 344.36 453.02 344.00 425.00 C 343.64 396.98 344.54 363.82 344.33 337.33 C 344.12 310.84 385.40 303.03 393.92 327.08 C 402.45 351.13 394.71 386.75 397.00 413.00 C 399.29 439.25 394.42 474.71 398.33 499.67 C 402.24 524.63 415.93 537.36 433.00 554.00 Z" />
    </g>
    <g fill="none" fill-opacity="1.0">
        <path
            d="
M 453.00 534.00 
C 470.38 515.14 487.24 503.21 505.75 484.75 C 524.27 466.29 545.64 454.25 571.78 448.78 C 597.91 443.31 638.20 448.37 663.31 438.31 C 688.41 428.24 704.84 407.59 708.00 381.00 C 711.16 354.41 694.17 328.98 671.23 316.77 C 648.29 304.56 612.58 306.23 592.08 322.08 C 571.59 337.93 557.59 353.82 538.75 370.75 C 519.92 387.69 505.42 403.53 486.70 420.70 C 467.97 437.87 453.42 451.94 434.25 470.25 C 415.08 488.56 431.15 522.87 453.00 534.00 Z" />
    </g>
    <g fill="none" fill-opacity="1.0">
        <path
            d="
M 433.00 554.00 
C 415.93 537.36 402.24 524.63 398.33 499.67 C 394.42 474.71 399.29 439.25 397.00 413.00 C 394.71 386.75 402.45 351.13 393.92 327.08 C 385.40 303.03 344.12 310.84 344.33 337.33 C 344.54 363.82 343.64 396.98 344.00 425.00 C 344.36 453.02 343.71 485.57 344.00 514.00 C 344.29 542.43 343.60 573.87 344.00 602.00 C 344.40 630.13 342.76 662.23 345.02 688.98 C 347.29 715.73 390.11 717.14 396.02 693.02 C 401.94 668.91 395.32 631.91 398.67 607.67 C 402.02 583.43 415.07 568.84 433.00 554.00 Z" />
    </g>
</svg>